<svg width="517" height="257" viewBox="0 0 517 257" fill="none" xmlns="http://www.w3.org/2000/svg">
<g clip-path="url(#clip0_247_20)">
<rect width="517" height="257" rx="6" fill="#E10038"/>
<path d="M177.995 133.364L178.134 148.812C178.134 166.207 170.898 175.392 152.111 175.392C133.185 175.392 126.087 166.207 126.087 148.812V101.775C126.087 84.3792 133.185 75.1945 152.111 75.1945C170.898 75.1945 177.995 84.3792 177.995 101.775V111.933H156.425V107.341C156.425 97.4605 155.312 95.0947 152.111 95.0947C148.91 95.0947 147.658 97.4605 147.658 107.341V143.245C147.658 153.126 148.91 155.491 152.111 155.491C155.312 155.491 156.564 153.126 156.564 143.245C156.564 128.911 155.59 124.319 155.59 124.319H177.16C177.16 124.319 177.995 126.267 177.995 133.364ZM202.807 76.5861V174H182.629V76.5861H202.807ZM207.22 101.635H228.095V141.853C228.095 153.126 229.347 155.491 232.27 155.491C235.053 155.491 237.001 153.265 237.001 141.158V101.635H257.876V174H237.836L240.341 156.048H238.95C236.862 171.773 230.6 175.392 222.389 175.392C209.864 175.392 207.22 166.068 207.22 147.42V101.635ZM283.41 76.5861V101.635L280.905 119.587H282.297C284.384 105.254 289.811 100.244 298.161 100.244C310.129 100.244 315.556 108.176 315.556 128.215V147.42C315.556 167.459 310.129 175.392 298.161 175.392C289.811 175.392 284.384 171.356 282.297 155.631H280.905L283.41 174H262.675V76.5861H283.41ZM294.682 141.853V133.782C294.682 122.51 293.708 120.144 290.229 120.144C287.724 120.144 285.776 122.371 285.776 134.478V141.158C285.776 153.265 287.724 155.491 290.229 155.491C293.708 155.491 294.682 153.126 294.682 141.853ZM339.524 76.5861V174H319.345V76.5861H339.524ZM362.446 174H356.462L341.849 101.635H362.446L367.873 145.611H369.265L373.161 101.635H393.757L375.944 199.049H356.462L362.446 174Z" fill="white"/>
</g>
<defs>
<clipPath id="clip0_247_20">
<rect width="517" height="257" fill="white"/>
</clipPath>
</defs>
</svg>
